<mxfile host="Electron" agent="Mozilla/5.0 (Windows NT 10.0; Win64; x64) AppleWebKit/537.36 (KHTML, like Gecko) draw.io/25.0.2 Chrome/128.0.6613.186 Electron/32.2.5 Safari/537.36" version="25.0.2">
  <diagram name="Page-1" id="YWtG0XAhFF_Lv_uuZQNF">
    <mxGraphModel dx="1247" dy="734" grid="1" gridSize="10" guides="1" tooltips="1" connect="1" arrows="1" fold="1" page="1" pageScale="1" pageWidth="850" pageHeight="1100" math="0" shadow="0">
      <root>
        <mxCell id="0" />
        <mxCell id="1" parent="0" />
        <mxCell id="zyYZ7I_gdf6-XKbezPRh-1" value="" style="rounded=0;whiteSpace=wrap;html=1;" parent="1" vertex="1">
          <mxGeometry x="200" y="250" width="760" height="600" as="geometry" />
        </mxCell>
        <mxCell id="zyYZ7I_gdf6-XKbezPRh-2" value="ERP база от данни" style="strokeWidth=2;html=1;shape=mxgraph.lean_mapping.mrp_erp;whiteSpace=wrap;" parent="1" vertex="1">
          <mxGeometry x="440" y="720" width="70" height="100" as="geometry" />
        </mxCell>
        <mxCell id="zyYZ7I_gdf6-XKbezPRh-14" value="" style="edgeStyle=orthogonalEdgeStyle;rounded=0;orthogonalLoop=1;jettySize=auto;html=1;" parent="1" source="zyYZ7I_gdf6-XKbezPRh-3" target="zyYZ7I_gdf6-XKbezPRh-13" edge="1">
          <mxGeometry relative="1" as="geometry" />
        </mxCell>
        <mxCell id="zyYZ7I_gdf6-XKbezPRh-3" value="Настолна&amp;nbsp;ERP система" style="image;aspect=fixed;html=1;points=[];align=center;fontSize=12;image=img/lib/azure2/other/Virtual_Instance_for_SAP.svg;" parent="1" vertex="1">
          <mxGeometry x="257.62" y="564" width="97.38" height="90" as="geometry" />
        </mxCell>
        <mxCell id="zyYZ7I_gdf6-XKbezPRh-9" value="Облачни приложения и API" style="html=1;whiteSpace=wrap;strokeColor=none;fillColor=#0079D6;labelPosition=center;verticalLabelPosition=middle;verticalAlign=top;align=center;fontSize=12;outlineConnect=0;spacingTop=-6;fontColor=#FFFFFF;sketch=0;shape=mxgraph.sitemap.cloud;" parent="1" vertex="1">
          <mxGeometry x="700" y="564" width="180" height="106" as="geometry" />
        </mxCell>
        <mxCell id="-p6Ozcucob4wTh9bOhnn-60" style="edgeStyle=orthogonalEdgeStyle;rounded=0;orthogonalLoop=1;jettySize=auto;html=1;entryX=1;entryY=0.5;entryDx=0;entryDy=0;" edge="1" parent="1" source="zyYZ7I_gdf6-XKbezPRh-11" target="-p6Ozcucob4wTh9bOhnn-42">
          <mxGeometry relative="1" as="geometry" />
        </mxCell>
        <mxCell id="-p6Ozcucob4wTh9bOhnn-61" style="edgeStyle=orthogonalEdgeStyle;rounded=0;orthogonalLoop=1;jettySize=auto;html=1;entryX=0;entryY=0.5;entryDx=0;entryDy=0;" edge="1" parent="1" source="zyYZ7I_gdf6-XKbezPRh-11" target="-p6Ozcucob4wTh9bOhnn-50">
          <mxGeometry relative="1" as="geometry" />
        </mxCell>
        <mxCell id="zyYZ7I_gdf6-XKbezPRh-11" value="Корпоративни&lt;div&gt;клиенти&lt;/div&gt;" style="shape=umlActor;verticalLabelPosition=bottom;verticalAlign=top;html=1;outlineConnect=0;" parent="1" vertex="1">
          <mxGeometry x="580" y="505" width="30" height="60" as="geometry" />
        </mxCell>
        <mxCell id="zyYZ7I_gdf6-XKbezPRh-13" value="SAP S/4HANA" style="image;aspect=fixed;html=1;points=[];align=center;fontSize=12;image=img/lib/azure2/other/Azure_Center_for_SAP.svg;" parent="1" vertex="1">
          <mxGeometry x="257.62" y="712" width="98" height="98" as="geometry" />
        </mxCell>
        <mxCell id="zyYZ7I_gdf6-XKbezPRh-17" value="" style="edgeStyle=orthogonalEdgeStyle;rounded=0;orthogonalLoop=1;jettySize=auto;html=1;" parent="1" source="zyYZ7I_gdf6-XKbezPRh-16" target="zyYZ7I_gdf6-XKbezPRh-3" edge="1">
          <mxGeometry relative="1" as="geometry" />
        </mxCell>
        <mxCell id="zyYZ7I_gdf6-XKbezPRh-16" value="Диспечери" style="shape=umlActor;verticalLabelPosition=bottom;verticalAlign=top;html=1;outlineConnect=0;" parent="1" vertex="1">
          <mxGeometry x="448.6" y="579" width="30" height="60" as="geometry" />
        </mxCell>
        <mxCell id="zyYZ7I_gdf6-XKbezPRh-18" value="" style="sketch=0;pointerEvents=1;shadow=0;dashed=0;html=1;strokeColor=none;labelPosition=center;verticalLabelPosition=bottom;verticalAlign=top;align=center;fillColor=#515151;shape=mxgraph.mscae.enterprise.database_server" parent="1" vertex="1">
          <mxGeometry x="850" y="308" width="79" height="90" as="geometry" />
        </mxCell>
        <mxCell id="zyYZ7I_gdf6-XKbezPRh-19" value="" style="sketch=0;pointerEvents=1;shadow=0;dashed=0;html=1;strokeColor=none;labelPosition=center;verticalLabelPosition=bottom;verticalAlign=top;align=center;fillColor=#515151;shape=mxgraph.mscae.system_center.admin_console" parent="1" vertex="1">
          <mxGeometry x="680" y="318" width="110" height="80" as="geometry" />
        </mxCell>
        <mxCell id="zyYZ7I_gdf6-XKbezPRh-24" value="" style="verticalLabelPosition=bottom;aspect=fixed;html=1;shape=mxgraph.salesforce.commerce2;" parent="1" vertex="1">
          <mxGeometry x="415.21" y="316.78" width="94.79" height="94.79" as="geometry" />
        </mxCell>
        <mxCell id="zyYZ7I_gdf6-XKbezPRh-25" value="" style="sketch=0;outlineConnect=0;fontColor=#232F3E;gradientColor=none;fillColor=#C925D1;strokeColor=none;dashed=0;verticalLabelPosition=bottom;verticalAlign=top;align=center;html=1;fontSize=12;fontStyle=0;aspect=fixed;pointerEvents=1;shape=mxgraph.aws4.rds_mysql_instance;" parent="1" vertex="1">
          <mxGeometry x="240" y="316.78" width="81.22" height="81.22" as="geometry" />
        </mxCell>
        <mxCell id="-p6Ozcucob4wTh9bOhnn-12" value="&lt;u&gt;Вариант № 3&lt;/u&gt;" style="text;html=1;align=center;verticalAlign=middle;whiteSpace=wrap;rounded=0;" vertex="1" parent="1">
          <mxGeometry x="850" y="260" width="90" height="30" as="geometry" />
        </mxCell>
        <mxCell id="-p6Ozcucob4wTh9bOhnn-16" value="База от данни за поръчки" style="strokeWidth=2;html=1;shape=mxgraph.lean_mapping.mrp_erp;whiteSpace=wrap;" vertex="1" parent="1">
          <mxGeometry x="710" y="720" width="70" height="100" as="geometry" />
        </mxCell>
        <mxCell id="-p6Ozcucob4wTh9bOhnn-17" value="" style="endArrow=classic;html=1;rounded=0;" edge="1" parent="1">
          <mxGeometry width="50" height="50" relative="1" as="geometry">
            <mxPoint x="730" y="710" as="sourcePoint" />
            <mxPoint x="730" y="680" as="targetPoint" />
          </mxGeometry>
        </mxCell>
        <mxCell id="-p6Ozcucob4wTh9bOhnn-18" value="" style="endArrow=classic;html=1;rounded=0;" edge="1" parent="1">
          <mxGeometry width="50" height="50" relative="1" as="geometry">
            <mxPoint x="750" y="680" as="sourcePoint" />
            <mxPoint x="750" y="710" as="targetPoint" />
          </mxGeometry>
        </mxCell>
        <mxCell id="-p6Ozcucob4wTh9bOhnn-19" value="База от данни за доставки" style="strokeWidth=2;html=1;shape=mxgraph.lean_mapping.mrp_erp;whiteSpace=wrap;" vertex="1" parent="1">
          <mxGeometry x="810" y="720" width="70" height="100" as="geometry" />
        </mxCell>
        <mxCell id="-p6Ozcucob4wTh9bOhnn-20" value="" style="endArrow=classic;html=1;rounded=0;" edge="1" parent="1">
          <mxGeometry width="50" height="50" relative="1" as="geometry">
            <mxPoint x="830" y="710" as="sourcePoint" />
            <mxPoint x="830" y="680" as="targetPoint" />
          </mxGeometry>
        </mxCell>
        <mxCell id="-p6Ozcucob4wTh9bOhnn-21" value="" style="endArrow=classic;html=1;rounded=0;" edge="1" parent="1">
          <mxGeometry width="50" height="50" relative="1" as="geometry">
            <mxPoint x="850" y="680" as="sourcePoint" />
            <mxPoint x="850" y="710" as="targetPoint" />
          </mxGeometry>
        </mxCell>
        <mxCell id="-p6Ozcucob4wTh9bOhnn-23" value="" style="rounded=0;whiteSpace=wrap;html=1;dashed=1;fillColor=none;" vertex="1" parent="1">
          <mxGeometry x="660" y="550" width="280" height="290" as="geometry" />
        </mxCell>
        <mxCell id="-p6Ozcucob4wTh9bOhnn-24" value="&lt;u&gt;Вариант № 1&lt;/u&gt;" style="text;html=1;align=center;verticalAlign=middle;whiteSpace=wrap;rounded=0;" vertex="1" parent="1">
          <mxGeometry x="220" y="520" width="90" height="30" as="geometry" />
        </mxCell>
        <mxCell id="-p6Ozcucob4wTh9bOhnn-27" value="Система за приемане на онлайн поръчки от класа на OS Commerce, OpenCart" style="text;html=1;align=center;verticalAlign=middle;whiteSpace=wrap;rounded=0;" vertex="1" parent="1">
          <mxGeometry x="270" y="416" width="170" height="30" as="geometry" />
        </mxCell>
        <mxCell id="-p6Ozcucob4wTh9bOhnn-31" value="" style="endArrow=classic;html=1;rounded=0;entryX=-0.086;entryY=0.34;entryDx=0;entryDy=0;entryPerimeter=0;" edge="1" parent="1" target="zyYZ7I_gdf6-XKbezPRh-2">
          <mxGeometry width="50" height="50" relative="1" as="geometry">
            <mxPoint x="370" y="754" as="sourcePoint" />
            <mxPoint x="760" y="570" as="targetPoint" />
          </mxGeometry>
        </mxCell>
        <mxCell id="-p6Ozcucob4wTh9bOhnn-32" value="" style="endArrow=classic;html=1;rounded=0;entryX=-0.086;entryY=0.34;entryDx=0;entryDy=0;entryPerimeter=0;" edge="1" parent="1">
          <mxGeometry width="50" height="50" relative="1" as="geometry">
            <mxPoint x="433.8" y="780" as="sourcePoint" />
            <mxPoint x="369.8" y="780" as="targetPoint" />
          </mxGeometry>
        </mxCell>
        <mxCell id="-p6Ozcucob4wTh9bOhnn-33" value="" style="rounded=0;whiteSpace=wrap;html=1;dashed=1;fillColor=none;" vertex="1" parent="1">
          <mxGeometry x="220" y="550" width="300" height="290" as="geometry" />
        </mxCell>
        <mxCell id="-p6Ozcucob4wTh9bOhnn-36" value="" style="endArrow=classic;html=1;rounded=0;entryX=-0.086;entryY=0.34;entryDx=0;entryDy=0;entryPerimeter=0;" edge="1" parent="1">
          <mxGeometry width="50" height="50" relative="1" as="geometry">
            <mxPoint x="338" y="356.89" as="sourcePoint" />
            <mxPoint x="402" y="356.89" as="targetPoint" />
          </mxGeometry>
        </mxCell>
        <mxCell id="-p6Ozcucob4wTh9bOhnn-37" value="" style="endArrow=classic;html=1;rounded=0;entryX=-0.086;entryY=0.34;entryDx=0;entryDy=0;entryPerimeter=0;" edge="1" parent="1">
          <mxGeometry width="50" height="50" relative="1" as="geometry">
            <mxPoint x="402" y="380" as="sourcePoint" />
            <mxPoint x="338" y="380" as="targetPoint" />
          </mxGeometry>
        </mxCell>
        <mxCell id="-p6Ozcucob4wTh9bOhnn-40" value="&lt;u&gt;Вариант № 2&lt;/u&gt;" style="text;html=1;align=center;verticalAlign=middle;whiteSpace=wrap;rounded=0;" vertex="1" parent="1">
          <mxGeometry x="220" y="260" width="90" height="30" as="geometry" />
        </mxCell>
        <mxCell id="-p6Ozcucob4wTh9bOhnn-42" value="" style="rounded=0;whiteSpace=wrap;html=1;dashed=1;fillColor=none;" vertex="1" parent="1">
          <mxGeometry x="220" y="290" width="300" height="190" as="geometry" />
        </mxCell>
        <mxCell id="-p6Ozcucob4wTh9bOhnn-43" value="" style="endArrow=classic;html=1;rounded=0;entryX=-0.086;entryY=0.34;entryDx=0;entryDy=0;entryPerimeter=0;" edge="1" parent="1">
          <mxGeometry width="50" height="50" relative="1" as="geometry">
            <mxPoint x="780" y="340" as="sourcePoint" />
            <mxPoint x="844" y="340" as="targetPoint" />
          </mxGeometry>
        </mxCell>
        <mxCell id="-p6Ozcucob4wTh9bOhnn-46" value="&lt;span style=&quot;text-wrap: nowrap;&quot;&gt;ERP система на &lt;br&gt;корпоративни&amp;nbsp;&lt;/span&gt;&lt;span style=&quot;text-wrap: nowrap; background-color: initial;&quot;&gt;клиенти&lt;/span&gt;" style="text;html=1;align=center;verticalAlign=middle;whiteSpace=wrap;rounded=0;" vertex="1" parent="1">
          <mxGeometry x="730" y="416" width="170" height="30" as="geometry" />
        </mxCell>
        <mxCell id="-p6Ozcucob4wTh9bOhnn-49" value="" style="endArrow=classic;html=1;rounded=0;" edge="1" parent="1">
          <mxGeometry width="50" height="50" relative="1" as="geometry">
            <mxPoint x="840" y="350" as="sourcePoint" />
            <mxPoint x="790" y="350" as="targetPoint" />
          </mxGeometry>
        </mxCell>
        <mxCell id="-p6Ozcucob4wTh9bOhnn-50" value="" style="rounded=0;whiteSpace=wrap;html=1;dashed=1;fillColor=none;" vertex="1" parent="1">
          <mxGeometry x="660" y="290" width="280" height="190" as="geometry" />
        </mxCell>
        <mxCell id="-p6Ozcucob4wTh9bOhnn-51" value="&lt;u&gt;Вариант № 4&lt;/u&gt;" style="text;html=1;align=center;verticalAlign=middle;whiteSpace=wrap;rounded=0;" vertex="1" parent="1">
          <mxGeometry x="850" y="520" width="90" height="30" as="geometry" />
        </mxCell>
        <mxCell id="-p6Ozcucob4wTh9bOhnn-55" value="" style="endArrow=classic;startArrow=classic;html=1;rounded=0;entryX=0.633;entryY=1.047;entryDx=0;entryDy=0;entryPerimeter=0;dashed=1;" edge="1" parent="1" target="-p6Ozcucob4wTh9bOhnn-42">
          <mxGeometry width="50" height="50" relative="1" as="geometry">
            <mxPoint x="410" y="540" as="sourcePoint" />
            <mxPoint x="460" y="490" as="targetPoint" />
          </mxGeometry>
        </mxCell>
        <mxCell id="-p6Ozcucob4wTh9bOhnn-59" value="синхронизация" style="edgeLabel;html=1;align=center;verticalAlign=middle;resizable=0;points=[];" vertex="1" connectable="0" parent="-p6Ozcucob4wTh9bOhnn-55">
          <mxGeometry x="0.0252" y="2" relative="1" as="geometry">
            <mxPoint as="offset" />
          </mxGeometry>
        </mxCell>
        <mxCell id="-p6Ozcucob4wTh9bOhnn-56" value="синхронизация на данните" style="text;html=1;align=center;verticalAlign=middle;whiteSpace=wrap;rounded=0;" vertex="1" parent="1">
          <mxGeometry x="550" y="730" width="90" height="30" as="geometry" />
        </mxCell>
        <mxCell id="-p6Ozcucob4wTh9bOhnn-57" value="" style="endArrow=classic;startArrow=classic;html=1;rounded=0;entryX=-0.011;entryY=0.601;entryDx=0;entryDy=0;entryPerimeter=0;exitX=1.02;exitY=0.603;exitDx=0;exitDy=0;exitPerimeter=0;dashed=1;" edge="1" parent="1" source="-p6Ozcucob4wTh9bOhnn-33" target="-p6Ozcucob4wTh9bOhnn-23">
          <mxGeometry width="50" height="50" relative="1" as="geometry">
            <mxPoint x="530" y="730" as="sourcePoint" />
            <mxPoint x="580" y="680" as="targetPoint" />
          </mxGeometry>
        </mxCell>
        <mxCell id="-p6Ozcucob4wTh9bOhnn-62" style="edgeStyle=orthogonalEdgeStyle;rounded=0;orthogonalLoop=1;jettySize=auto;html=1;entryX=1.009;entryY=0.382;entryDx=0;entryDy=0;entryPerimeter=0;" edge="1" parent="1" source="zyYZ7I_gdf6-XKbezPRh-11" target="-p6Ozcucob4wTh9bOhnn-33">
          <mxGeometry relative="1" as="geometry" />
        </mxCell>
        <mxCell id="-p6Ozcucob4wTh9bOhnn-63" style="edgeStyle=orthogonalEdgeStyle;rounded=0;orthogonalLoop=1;jettySize=auto;html=1;entryX=0.009;entryY=0.382;entryDx=0;entryDy=0;entryPerimeter=0;" edge="1" parent="1" source="zyYZ7I_gdf6-XKbezPRh-11" target="-p6Ozcucob4wTh9bOhnn-23">
          <mxGeometry relative="1" as="geometry" />
        </mxCell>
        <mxCell id="-p6Ozcucob4wTh9bOhnn-64" value="" style="endArrow=classic;startArrow=classic;html=1;rounded=0;entryX=0.633;entryY=1.047;entryDx=0;entryDy=0;entryPerimeter=0;dashed=1;" edge="1" parent="1">
          <mxGeometry width="50" height="50" relative="1" as="geometry">
            <mxPoint x="799.5699999999999" y="541" as="sourcePoint" />
            <mxPoint x="799.5699999999999" y="490" as="targetPoint" />
          </mxGeometry>
        </mxCell>
        <mxCell id="-p6Ozcucob4wTh9bOhnn-65" value="B2B интеграция" style="edgeLabel;html=1;align=center;verticalAlign=middle;resizable=0;points=[];" vertex="1" connectable="0" parent="-p6Ozcucob4wTh9bOhnn-64">
          <mxGeometry x="0.0252" y="2" relative="1" as="geometry">
            <mxPoint as="offset" />
          </mxGeometry>
        </mxCell>
      </root>
    </mxGraphModel>
  </diagram>
</mxfile>
